<svg width="1024" height="768" xmlns="http://www.w3.org/2000/svg">
 <metadata id="metadata2448">image/svg+xml</metadata>

 <g>
  <title>background</title>
  <rect fill="none" id="canvas_background" height="402" width="582" y="-1" x="-1"/>
 </g>
 <g>
  <title>Layer 1</title>
  <path fill="#000000" id="path2454" d="m629.73548,747.596075l-7.7644,-8.1968l0.2644,-31.0793l0.2645,-31.0793l12.7367,9.4052l12.7366,9.4052l11.3358,0l11.3358,0l5.6776,-6.4269l5.6775,-6.4269l0,-116.84991l0,-116.84992l6.7751,-6.72318l6.7751,-6.72318l18.2249,0l18.2249,0l-0.0014,115.25c-0.0009,63.3875 -0.3017,131.67499 -0.6687,151.74999l-0.6672,36.5l-10.5813,8.2282l-10.5814,8.2281l-36,-0.1072l-36,-0.1073l-7.7645,-8.1968zm-82.73546,-92.84204l0,-11.29705l4,-3.9059l3.99996,-3.9059l0,-74.5941l0,-74.5941l-3.99996,-3.9059c-3.93932,-3.84664 -4,-4.01582 -4,-11.15224l0,-7.24635l18.60176,-15.05071l18.6017,-15.0507l10.8983,0l10.8982,0l0,116l0,115.99999l-29.5,0l-29.49996,0l0,-11.29704zm-519.99999,1.65074l0,-7.64628l4.5,-4.81086l4.5,-4.81087l0,-156.06518l0,-156.06519l-4,-4.33948c-3.8878,-4.21777 -4,-4.53971 -4,-11.47766l0,-7.13817l171.12196,0c170.52059,0 171.11715,0.00698 169.75,1.98624c-0.75458,1.09243 -9.47197,12.09017 -19.37197,24.43943l-18,22.4532l-111.75,0.06056l-111.74999,0.06057l0,55l0,55l36.74999,0.01238l36.75,0.01238l9.75,10.40923l9.75,10.40924l0,12.66309l0,12.66308l-10.16875,10.9153l-10.16875,10.9153l-37.83124,0l-37.83125,0l0,54.40733l0,54.40733l5,4.49543l5,4.49543l0,7.59727l0,7.5972l-44,0l-44,0l0,-7.6463zm196.63798,-0.4004c-4.89541,-5.20387 -7.93316,-9.35509 -8.59831,-11.75002c-0.64471,-2.32133 -1.03061,-23.44087 -1.0341,-56.59538l-0.00558,-52.8921l11.7187,-12.1079c6.44529,-6.65934 16.90779,-16.03391 23.25,-20.83238c11.36244,-8.59673 11.6155,-8.72487 17.2813,-8.75l5.75,-0.02551l0,-11.5l0,-11.5l-8.75,0.00347l-8.75,0.00348l-14.49491,11.44898l-14.49491,11.44898l-2.75509,-2.63955l-2.75509,-2.63954l0,-24.82848l0,-24.82848l6.14283,-7.48443l6.14284,-7.48443l39.62801,0l39.62802,0l8.72915,8.76978l8.72915,8.76979l0,102.75873l0,102.75873l3,5.94297c1.65,3.26859 3,7.30579 3,8.97149l0,3.0285l-25.81291,0l-25.81291,0l-2.88155,-3.0077l-2.88155,-3.0077l-3.10315,3.0077l-3.10314,3.0077l-20.09851,0l-20.09851,0l-7.56978,-8.0467zm56.42787,-55.20329c2.37303,-4.14331 2.44263,-4.88386 2.77241,-29.5l0.33828,-25.25l-5.64465,0c-5.08299,0 -5.93754,0.32068 -8.58827,3.22286l-2.94363,3.22286l0,26.27714l0,26.27714l5.81586,0c5.79369,0 5.82513,-0.0162 8.25,-4.25zm74.93414,-27.77496l0,-91.02497l-3.52386,-6.99745c-3.69864,-7.34451 -4.849,-7.82306 -8.43083,-3.50722c-2.56579,3.09159 -3.1114,1.41533 -2.83029,-8.6954l0.28498,-10.25l18.4317,-11.25c21.70965,-13.25074 23.32256,-13.64621 29.5683,-7.25c2.14824,2.2 4.44057,4 5.09406,4c0.6535,0 3.36642,-1.8 6.02873,-4l4.84055,-4l23.48048,0l23.48048,0l4.3183,4.2381c4.20852,4.13034 4.38745,4.19928 7.03785,2.71169l2.71955,-1.52641l0.25417,-116.21169l0.25416,-116.21169l2.99584,0l2.99583,0l0,113.5l0,113.5l23.40915,0l23.40914,0l7.06824,7.75l7.06825,7.75l0.02261,90.55383l0.02261,90.55384l3.5,3.39233l3.5,3.39233l0,15.30384l0,15.30382l-21.79705,0l-21.79705,0l-3.70295,-3.7921l-3.70295,-3.7922l0,-79.5049l0,-79.50489l-3.79216,-3.70295c-3.13599,-3.06221 -4.50767,-3.70295 -7.9272,-3.70295c-3.5577,0 -4.56406,0.52048 -7.20784,3.72784l-3.0728,3.72785l0,64.40095l0,64.40096l3.5,3.87408l3.5,3.87408l0,14.99712l0,14.99711l-26,0l-26,0l0,-82.81999l0,-82.82l-3.57792,-4.18c-3.15066,-3.68083 -4.08177,-4.18 -7.79706,-4.18c-3.56612,0 -4.79224,0.58692 -7.92207,3.79216l-3.70295,3.79217l0,79.41567l0,79.41569l3.70295,3.7922l3.70295,3.7921l-25.70295,0l-25.70295,0l0,-91.02495zm266.29706,87.23285l3.7029,-3.7922l0,-142.91569l0,-142.91567l-3.6324,-3.71994l-3.6324,-3.71993l4.8824,-3.02669c2.6853,-1.66469 12.3074,-7.66058 21.3824,-13.32421l16.5,-10.29752l0.2643,-31.24802c0.1453,-17.18641 0.6381,-31.24802 1.095,-31.24802c0.4569,0 1.5755,0.82293 2.4857,1.82874c1.4639,1.61757 1.655,5.35262 1.655,32.34501c0,29.24628 0.0833,30.5916 2,32.32625c1.9842,1.79568 2,3.07997 2,162.65499l0,160.845l-26.2029,0l-26.203,0l3.703,-3.7921zm131.4216,-1.9869l-5.7187,-5.77898l0,-98.18932l0,-98.18931l4.4559,-3.28169l4.4559,-3.28169l0.2941,-67l0.2941,-67l2.25,-0.31955l2.25,-0.31955l0,65.15606l0,65.15606l4.197,-3.08651l4.197,-3.08651l36.0261,0l36.0261,0l6.2769,6.22111l6.2769,6.22111l0,-95.72111l0,-95.72111l2.6649,0l2.6649,0l-0.6434,142.69933l-0.6435,142.69933l-5.7714,5.88461c-4.2726,4.35632 -8.3686,7.18406 -15.7715,10.88804c-9.2615,4.63394 -11.0892,6.08532 -24.75,19.65356c-17.6187,17.49944 -17.7289,17.80153 -9.4685,25.95929l5.2814,5.21584l11.4856,0l11.4856,0l10.9659,-11c8.6808,-8.70776 11.5425,-11 13.733,-11l2.767,0l-0.011,24.75c-0.006,13.6125 -0.2877,26.42362 -0.6258,28.46916c-0.4635,2.80388 -2.451,5.69557 -8.0756,11.75003l-7.4608,8.0308l-41.6947,0l-41.6947,0l-5.7187,-5.779zm52.5942,-138.02571c2.6488,-2.76474 2.6871,-2.99994 2.6871,-16.5l0,-13.69528l-5.5,0l-5.5,0l0,16.5l0,16.5l2.8129,0c1.7766,0 3.8029,-1.03333 5.5,-2.80472zm73.6871,51.27976l0,-90.52497l-3.5125,-6.97503c-1.932,-3.83627 -3.8785,-6.97504 -4.3257,-6.97504c-0.4472,0 -1.87,1.125 -3.1618,2.5c-1.2917,1.375 -2.7202,2.5 -3.1743,2.5c-0.4541,0 -0.8235,-4.6125 -0.8207,-10.25l0.0049,-10.25l18.6774,-11.25c20.3243,-12.24199 23.5239,-13.27914 27.9983,-9.07569l2.3144,2.17432l0,-87.77002c0,-81.12497 0.1299,-87.98991 1.7156,-90.67432c0.9436,-1.59736 2.0686,-2.90429 2.5,-2.90429c0.4315,0 0.7844,41.4 0.7844,92c0,50.6 0.3375,91.99563 0.75,91.99029c0.4125,-0.00533 2.7259,-1.58033 5.1408,-3.5l4.3907,-3.49029l23.5857,0l23.5858,0l7.2735,7.22497l7.2735,7.22497l0,90.57887l0,90.57886l3.5,3.39233l3.5,3.39233l0,15.30384l0,15.30382l-21.797,0l-21.7971,0l-3.7029,-3.7921l-3.703,-3.79222l0,-79.00488l0,-79.00489l-3.7921,-3.70295c-3.0958,-3.02294 -4.5276,-3.70295 -7.7971,-3.70295c-3.3181,0 -4.6398,0.65027 -7.7078,3.79216l-3.703,3.79217l0,78.91567l0,78.91567l3.703,3.79222l3.7029,3.7921l-25.7029,0l-25.703,0l0,-90.52495zm-191.75,-154.5128l-7.25,-6.97421l0,-19.26904l0,-19.26905l7.2736,-7.22497l7.2735,-7.22497l14.4765,0.01589l14.4764,0.01589l7.75,7.6074l7.75,7.60739l0,18.25343l0,18.25343l-7.75,7.60739l-7.75,7.6074l-14.5,-0.01589l-14.5,-0.01588l-7.25,-6.97421zm-132.4271,-4.71224l-7.67643,-6.75l-0.07322,-19.23088l-0.07321,-19.23088l7.74996,-7.48873c7.4063,-7.15655 7.9607,-7.49008 12.5,-7.51912l4.75,-0.03039l0,-6.5l0,-6.5l3,0l3,0l0,6.5l0,6.5l6.7265,0l6.7265,0l7.2735,7.22497l7.2735,7.22497l0,19.05006l0,19.05006l-7.2735,7.22497l-7.2735,7.22497l-14.4768,0l-14.4768,0l-7.6765,-6.75zm30.9914,-78.29416c-0.9272,-0.54084 -7.2272,-2.09662 -14,-3.4573c-29.23064,-5.87249 -41.10728,-9.19497 -41.59308,-11.63561c-0.26819,-1.34733 2.30392,-4.23118 9.77882,-10.96401c3.37735,-3.04206 23.85866,-22.28345 42.49476,-39.92224c4.9529,-4.68782 11.2018,-10.37173 13.8865,-12.63091l4.8814,-4.10761l-7.8814,-5.30762c-4.3347,-2.91919 -10.6332,-7.18685 -13.9967,-9.48368c-3.3635,-2.29684 -8.6367,-4.96911 -11.7183,-5.93837c-9.6988,-3.05066 -16.74262,-10.88016 -18.24589,-20.28111l-0.63261,-3.95614l-7.64388,-0.65262c-4.20413,-0.35895 -10.11888,-1.09422 -13.14388,-1.63395c-6.67164,-1.19038 -15.94782,-2.58674 -26,-3.91383c-4.125,-0.54459 -10.65,-1.444 -14.5,-1.9987c-3.85,-0.5547 -9.025,-1.30057 -11.5,-1.65749c-2.475,-0.35692 -4.95,-1.20329 -5.5,-1.88083c-0.55,-0.67754 -3.1375,-1.5524 -5.75,-1.94413c-2.6125,-0.39173 -4.75,-1.1505 -4.75,-1.68615c0,-1.13109 2.52532,-5.28446 5.45713,-8.97529c1.12358,-1.41446 3.16787,-4.08912 4.54287,-5.94368c1.375,-1.85456 6.73591,-8.51376 11.91313,-14.79822l9.41314,-11.42629l4.58686,0.578c2.52278,0.3179 8.18687,1.06164 12.58687,1.65277c17.95933,2.41277 32.25995,3.97068 36.61989,3.98937l4.6199,0.0198l1.21925,-6.19733c3.34482,-17.00141 9.37962,-27.79922 19.93072,-35.66081c10.5862,-7.88783 28.2261,-22.01622 33.1102,-26.51917c13.4056,-12.35919 25.3932,-28.57634 33.7239,-45.62269c3.5729,-7.31088 3.6641,-7.78368 3.618,-18.75l-0.0473,-11.25l7.8527,0l7.8527,0l-0.0014,5.75c-0.0008,3.1625 0.5151,10.51911 1.1465,16.34803c0.6314,5.82891 0.8515,11.77935 0.4892,13.22321c-1.3116,5.22585 -32.3548,42.72117 -55.2003,66.67349c-24.878,26.08314 -25.4001,26.85378 -28.799,42.50527c-1.6465,7.58226 -5.6752,30.85157 -7.7044,44.5c-0.695,4.675 -1.704,9.37982 -2.2421,10.45515c-0.8107,1.61998 -0.325,2.51997 2.8332,5.25c5.8157,5.02732 7.0374,4.51892 9.5039,-3.95515c8.6558,-29.73811 12.9326,-43.8485 16.4428,-54.25c3.9673,-11.75598 4.1105,-12 7.0407,-12c2.8539,0 3.0048,0.21524 3.2936,4.6984c0.2464,3.82396 0.5996,4.58447 1.8979,4.08626c1.9042,-0.7307 1.8688,-0.52045 -2.6471,15.71534c-4.9077,17.6441 -10.0721,37.6449 -11.6011,44.92872c-0.7587,3.6142 -1.6733,7.80878 -2.0325,9.32128c-0.535,2.25288 -0.3156,2.74814 1.2136,2.73968c1.3266,-0.00733 2.8702,-2.10442 5.3364,-7.25c11.8405,-24.70405 37.873,-62.87511 43.9349,-64.42095c3.7571,-0.95809 5.6469,0.8552 5.267,5.05375c-0.2512,2.77633 0.0422,3.62752 1.25,3.62752c0.868,0 1.5782,0.36759 1.5782,0.81688c0,0.44928 -3.2192,5.71747 -7.1538,11.70708c-10.0317,15.27117 -21.0895,34.29341 -26.4358,45.47604c-2.498,5.225 -5.1677,10.73993 -5.9327,12.25539c-1.2972,2.56986 -1.2233,2.86516 1.097,4.38546c1.3682,0.89654 2.8112,1.29746 3.2065,0.89094c3.3945,-3.49045 22.3645,-20.84787 24.7188,-22.61751c3.3649,-2.52921 10.79,-9.53748 19.3055,-18.22165c3.132,-3.19406 9.3109,-11.51906 13.7309,-18.5c6.7169,-10.60852 8.4382,-12.69263 10.4831,-12.69263c2.0639,0 2.5446,0.60285 3.0731,3.85416c0.3445,2.11978 1.1764,4.19406 1.8486,4.6095c0.9371,0.57912 0.63,3.41279 -1.3162,12.14584c-2.8299,12.69876 -6.0476,33.96115 -7.5502,49.8905c-0.5447,5.775 -1.2694,11.64631 -1.6104,13.04736c-0.4895,2.01086 0.3438,3.82963 3.9565,8.63552c6.8521,9.11537 22.5321,25.31712 24.5018,25.31712c3.7035,0 16.7525,-5.20495 22.5995,-9.01446c8.8466,-5.76378 36.4778,-34.21307 36.4778,-37.5578c0,-0.69359 0.5625,-1.52564 1.25,-1.849c0.6875,-0.32337 -0.0282,-0.41548 -1.5905,-0.20471c-1.5622,0.21077 -4.2622,0.01591 -6,-0.43304c-1.7377,-0.44894 -6.5345,-1.36547 -10.6595,-2.03674c-4.125,-0.67127 -8.2104,-1.82434 -9.0787,-2.56237c-0.8683,-0.73803 -2.4433,-1.34877 -3.5,-1.35719c-4.7229,-0.03765 -4.7791,-0.36805 -4.022,-23.63995c0.3909,-12.01461 1.0558,-22.19203 1.4775,-22.6165c0.4217,-0.42447 4.5856,-2.07063 9.253,-3.65815l8.4862,-2.88638l10.442,1.78819c5.7431,0.9835 13.592,2.27675 17.442,2.87388c8.2473,1.27913 23.1148,3.73443 36.7568,6.07019c6.4603,1.10612 10.0923,1.33495 10.75,0.67728c1.8311,-1.8311 1.1804,-31.31016 -0.9656,-43.74388c-3.9267,-22.75108 -12.9824,-43.34331 -26.0998,-59.34937c-20.9964,-25.62003 -24.6578,-34.83819 -26.3262,-66.27922l-0.4393,-8.27922l12.4823,0.27922l12.4823,0.27922l0.4374,8c1.3044,23.85764 3.7448,39.3453 6.4643,41.02607c0.4891,0.30227 4.8156,-3.28938 9.6145,-7.98145c4.7988,-4.69207 9.5493,-8.79259 10.5565,-9.11226c1.7647,-0.5601 47.2576,13.99283 49.2618,15.75859c0.6248,0.55045 0.4978,1.62306 -0.3536,2.98629c-1.1365,1.81988 -1.0968,2.25702 0.2751,3.02473c0.8819,0.49358 1.6035,1.44027 1.6035,2.10376c0,0.66349 -9.692,10.85115 -21.5379,22.63925c-18.9974,18.90471 -21.4757,21.735 -21.0098,23.99396c0.2906,1.40858 1.2329,9.53606 2.0941,18.06106c2.165,21.43117 4.1322,35.09285 6.4078,44.5c1.0644,4.4 2.3102,9.78192 2.7686,11.95982l0.8333,3.95982l7.4719,1.28678c4.1096,0.70773 24.122,4.0159 44.472,7.35149c20.35,3.33559 37.3758,6.43541 37.8351,6.8885c0.4593,0.45308 0.1375,2.17288 -0.7152,3.82178c-1.4258,2.75714 -1.4156,2.9873 0.1266,2.8649c3.1781,-0.25224 2.307,2.9872 -3.0694,11.41499c-2.9655,4.64856 -8.7185,13.81131 -12.7844,20.36168c-4.066,6.55037 -7.6773,12.34132 -8.0251,12.86877c-0.6103,0.92542 -17.927,-1.25453 -25.8676,-3.25639c-3.835,-0.96683 -12.0038,-2.28706 -27.7624,-4.48691c-5.6444,-0.78793 -10.6887,-1.69599 -11.2095,-2.0179c-0.5209,-0.32192 -2.6528,0.91841 -4.7376,2.75629c-6.8995,6.08243 -18.6469,15.20395 -29.2905,22.74326c-5.775,4.09069 -17.7,12.78365 -26.5,19.31769c-14.8906,11.05637 -25.6464,17.66543 -28.7492,17.66543c-0.7185,0 -2.0769,-0.9 -3.0187,-2c-0.9419,-1.1 -2.5327,-2 -3.5352,-2c-2.0737,0 -6.0258,-3.94636 -8.7826,-8.76977c-1.2679,-2.21836 -2.3585,-3.06903 -3.3916,-2.64549c-13.4681,5.52165 -20.5657,7.11073 -22.873,5.12101c-0.9073,-0.7824 -3.0861,-1.90378 -4.8418,-2.49196c-3.7433,-1.25406 -17.737,-11.58664 -31.656,-23.37392c-12.3594,-10.46659 -12.5312,-10.58605 -13.4303,-9.33987c-0.3969,0.55 -6.7966,6.625 -14.2216,13.5c-7.425,6.875 -14.175,13.175 -15,14c-0.825,0.825 -7.575,7.125 -15,14c-7.425,6.875 -14.1788,13.175 -15.0084,14c-6.2998,6.26438 -13.0895,11.99495 -14.1817,11.96959c-0.7204,-0.01672 -2.0685,-0.47291 -2.9956,-1.01375zm177.2092,-41.27147c4.6621,-3.4736 9.264,-6.60948 10.2265,-6.96862c2.3754,-0.88631 2.2038,-3.58765 -0.3697,-5.81957c-1.6389,-1.42147 -2.5613,-1.6021 -4.0667,-0.79643c-1.0708,0.5731 -3.5141,0.90697 -5.4296,0.74195c-1.9155,-0.16503 -3.7979,0.16226 -4.1833,0.7273c-0.3854,0.56505 -2.0986,2.00287 -3.8073,3.19515c-2.6866,1.87477 -3.1863,2.94044 -3.6965,7.88383c-0.9742,9.4394 -0.0635,9.52273 11.3266,1.03639zm38.7265,-32.49587c6.1875,-6.23687 11.25,-11.94322 11.25,-12.68079c0,-0.73758 0.5625,-1.57616 1.25,-1.86352c0.6875,-0.28737 -0.1,-0.50447 -1.75,-0.48246c-2.8379,0.03786 -11.8744,-1.18847 -23,-3.1213c-10.8662,-1.88778 -18.8086,-3.06171 -18.9947,-2.80754c-5.1761,7.06734 -14.521,22.77738 -14.483,24.34797c0.0122,0.50553 0.7997,1.92414 1.75,3.15247c1.5904,2.05581 2.1649,2.16211 7.2277,1.33723c7.2741,-1.18514 13.616,0.2247 17.9037,3.98012c4.0785,3.57207 2.6293,4.48422 18.8463,-11.86218zm52.25,-119.53351c0,-46.53466 0.1042,-49.43927 1.8288,-51c1.0058,-0.91025 2.1308,-1.65499 2.5,-1.65499c0.3692,0 0.6712,22.95 0.6712,51l0,51l-2.5,0l-2.5,0l0,-49.34501z"/>
 </g>
</svg>